<svg xmlns="http://www.w3.org/2000/svg" width="86" height="19" viewBox="0 0 86 19">
    <g fill="#4A4A4A" fill-rule="evenodd">
        <text font-family="NotoSerif, Noto Serif" font-size="15" transform="translate(0 -.5)">
            <tspan x="18" y="16.136">Facebook</tspan>
        </text>
        <path fill-rule="nonzero" d="M9.623.517L7.225.514c-2.695 0-4.436 1.762-4.436 4.49v2.07H.377A.375.375 0 0 0 0 7.446v3c0 .205.169.371.377.371H2.79v7.568c0 .206.169.372.377.372h3.146a.375.375 0 0 0 .378-.372v-7.568h2.82a.374.374 0 0 0 .376-.372l.002-3a.37.37 0 0 0-.11-.262.38.38 0 0 0-.268-.11H6.69V5.32c0-.844.203-1.272 1.317-1.272h1.616A.375.375 0 0 0 10 3.673V.89a.375.375 0 0 0-.377-.372z"/>
    </g>
</svg>
